<!-- icon666.com - MILLIONS vector ICONS FREE --><svg clip-rule="evenodd" fill-rule="evenodd" stroke-linejoin="round" stroke-miterlimit="2" viewBox="0 0 32 32" xmlns="http://www.w3.org/2000/svg"><g transform="translate(-96 -32)"><g id="Icon"><g transform="translate(0 4)"><path d="m127 40c0-.796-.316-1.559-.879-2.121-.562-.563-1.325-.879-2.121-.879-5.154 0-18.846 0-24 0-.796 0-1.559.316-2.121.879-.563.562-.879 1.325-.879 2.121v16c0 .796.316 1.559.879 2.121.562.563 1.325.879 2.121.879h24c.796 0 1.559-.316 2.121-.879.563-.562.879-1.325.879-2.121zm-2 0v16c0 .265-.105.52-.293.707-.187.188-.442.293-.707.293-5.154 0-18.846 0-24 0-.265 0-.52-.105-.707-.293-.188-.187-.293-.442-.293-.707v-16c0-.265.105-.52.293-.707.187-.188.442-.293.707-.293h24c.265 0 .52.105.707.293.188.187.293.442.293.707z"></path></g><path d="m111 55.586-2.293-2.293c-.39-.39-1.024-.39-1.414 0s-.39 1.024 0 1.414l4 4c.39.391 1.024.391 1.414 0l4-4c.39-.39.39-1.024 0-1.414s-1.024-.39-1.414 0l-2.293 2.293v-9.586c0-.552-.448-1-1-1s-1 .448-1 1z"></path><g transform="translate(0 2)"><path d="m102 37h20c.552 0 1-.448 1-1s-.448-1-1-1h-20c-.552 0-1 .448-1 1s.448 1 1 1z"></path></g><g transform="translate(0 -2)"><path d="m106 37h12c.552 0 1-.448 1-1s-.448-1-1-1h-12c-.552 0-1 .448-1 1s.448 1 1 1z"></path></g></g></g></svg>