<?xml version="1.0" standalone="no"?>
<!DOCTYPE svg PUBLIC "-//W3C//DTD SVG 20010904//EN"
 "http://www.w3.org/TR/2001/REC-SVG-20010904/DTD/svg10.dtd">
<svg version="1.0" xmlns="http://www.w3.org/2000/svg"
 width="1280.000000pt" height="1280.000000pt" viewBox="0 0 1280.000000 1280.000000"
 preserveAspectRatio="xMidYMid meet">
<g transform="translate(0.000000,1280.000000) scale(0.100000,-0.100000)"
>
<path d="M5882 9249 c-156 -21 -357 -63 -522 -110 -650 -185 -1249 -606 -1672
-1176 -436 -587 -656 -1339 -610 -2085 31 -505 181 -997 434 -1427 407 -692
1101 -1232 1852 -1441 340 -95 508 -120 842 -127 210 -4 287 -2 395 12 456 57
854 183 1213 384 780 437 1332 1157 1551 2023 27 107 35 154 30 186 -13 86
-90 134 -171 106 -47 -16 -60 -31 -125 -148 -332 -588 -899 -1020 -1545 -1174
-225 -54 -335 -66 -584 -66 -248 1 -391 18 -610 73 -293 73 -613 230 -870 424
-115 88 -333 301 -424 417 -279 352 -457 768 -518 1210 -17 124 -16 507 1 630
40 296 123 554 263 820 121 230 252 406 448 601 282 282 627 488 1016 608 63
20 109 40 123 55 31 33 43 82 31 126 -21 79 -76 99 -265 99 -77 -1 -204 -9
-283 -20z"/>
</g>
</svg>
